<?xml version="1.0" standalone="no"?>
<!DOCTYPE svg PUBLIC "-//W3C//DTD SVG 20010904//EN"
 "http://www.w3.org/TR/2001/REC-SVG-20010904/DTD/svg10.dtd">
<svg version="1.0" xmlns="http://www.w3.org/2000/svg"
 width="816.000000pt" height="816.000000pt" viewBox="0 0 816.000000 816.000000"
 preserveAspectRatio="xMidYMid meet">
<metadata>
Created by potrace 1.11, written by Peter Selinger 2001-2013
</metadata>
<g transform="translate(0.000000,816.000000) scale(0.100000,-0.100000)"
fill="#000000" stroke="none">
<path d="M3485 8099 c-22 -4 -56 -9 -75 -12 -59 -8 -121 -25 -215 -57 -49 -17
-97 -33 -106 -35 -51 -11 -477 -172 -489 -185 -3 -3 -12 -6 -20 -8 -55 -12
-609 -307 -640 -341 -3 -4 -39 -28 -80 -55 -65 -43 -256 -181 -270 -196 -3 -3
-32 -28 -65 -55 -203 -169 -468 -448 -590 -620 -11 -15 -27 -36 -36 -45 -8 -9
-19 -23 -22 -31 -6 -12 -80 -121 -104 -154 -23 -30 -83 -135 -83 -144 0 -6 -4
-11 -8 -11 -4 0 -23 -30 -42 -67 -19 -38 -38 -70 -41 -73 -6 -5 -109 -217
-109 -225 0 -2 -11 -28 -25 -57 -54 -118 -160 -417 -180 -512 -3 -10 -11 -42
-19 -70 -14 -51 -40 -165 -50 -221 -3 -16 -8 -41 -11 -55 -3 -14 -8 -38 -10
-55 -3 -16 -7 -41 -10 -55 -3 -14 -8 -45 -11 -70 -3 -25 -7 -61 -10 -80 -8
-68 -17 -166 -18 -207 -1 -24 -3 -43 -6 -43 -6 0 -8 -93 -9 -355 0 -204 2
-245 14 -395 13 -152 14 -165 15 -165 1 0 3 -16 5 -35 9 -89 14 -126 19 -140
2 -8 7 -35 10 -60 4 -38 18 -116 40 -220 63 -308 194 -680 334 -950 48 -93
174 -297 191 -310 3 -3 19 -23 36 -45 31 -42 179 -195 188 -195 3 0 21 -13 39
-30 18 -16 38 -30 44 -30 6 0 17 -7 24 -15 16 -19 143 -82 185 -91 68 -15 165
-12 230 6 62 18 165 69 193 97 7 7 17 13 21 13 10 0 142 130 171 168 14 19 30
39 35 46 9 11 17 24 48 79 6 12 14 24 17 27 24 23 136 314 154 400 3 14 8 36
11 50 14 57 18 79 39 220 24 160 30 223 42 425 8 146 8 800 0 980 -3 72 -8
186 -11 255 -3 69 -7 175 -10 235 -2 61 -7 175 -11 255 -3 80 -7 185 -9 235
l-2 90 216 215 c239 239 391 399 391 412 0 4 7 8 15 8 8 0 15 4 15 8 0 5 17
27 38 50 20 23 60 67 87 98 28 32 59 68 70 80 11 12 27 31 35 41 32 38 156
189 170 206 8 11 20 24 25 31 58 63 345 467 345 486 0 5 4 10 8 10 5 0 43 57
84 128 85 142 170 302 162 302 -3 0 2 7 10 16 9 8 16 24 16 33 0 10 7 24 15
31 8 7 15 18 15 25 0 7 7 29 15 49 8 20 15 39 16 43 0 5 7 18 15 31 8 12 12
22 10 22 -3 0 2 19 10 43 9 23 17 49 19 57 1 8 8 35 15 60 24 89 32 153 32
245 0 62 -7 146 -12 153 -2 1 -3 5 -5 10 -29 102 -112 210 -197 253 -83 42
-243 65 -343 48z"/>
<path d="M5618 7525 c-2 -3 -40 -7 -84 -10 -89 -6 -118 -10 -154 -19 -14 -3
-36 -8 -50 -10 -14 -3 -50 -12 -80 -21 -30 -9 -59 -17 -65 -18 -54 -14 -239
-101 -263 -124 -7 -7 -19 -13 -27 -13 -7 0 -15 -4 -17 -8 -1 -5 -25 -23 -51
-41 -26 -18 -61 -45 -76 -59 -15 -15 -45 -43 -67 -63 -124 -116 -259 -303
-377 -521 -20 -38 -33 -68 -29 -68 4 0 2 -4 -4 -8 -11 -8 -84 -173 -84 -191 0
-6 -4 -19 -10 -29 -23 -42 -102 -333 -114 -422 -1 -8 -6 -42 -10 -75 -4 -33
-10 -71 -12 -85 -18 -97 -25 -479 -11 -640 9 -104 26 -250 32 -270 3 -9 7 -34
9 -55 4 -34 14 -93 40 -225 3 -14 14 -61 26 -105 11 -44 22 -93 25 -109 2 -16
9 -43 14 -60 6 -17 12 -42 14 -56 2 -14 6 -32 10 -40 3 -8 13 -55 22 -105 9
-49 19 -99 21 -110 2 -11 6 -33 9 -50 2 -16 6 -41 9 -55 7 -35 16 -97 22 -150
3 -25 7 -58 9 -75 10 -71 19 -206 19 -282 1 -46 3 -83 6 -83 3 0 5 -33 4 -72
-2 -83 -40 -196 -129 -385 -76 -159 -293 -530 -325 -553 -3 -3 -9 -12 -12 -20
-5 -12 -115 -167 -145 -205 -5 -5 -33 -44 -62 -85 -30 -41 -59 -79 -65 -85 -6
-5 -43 -53 -83 -105 -40 -52 -84 -107 -98 -122 -14 -15 -25 -30 -25 -33 0 -3
-8 -14 -17 -24 -10 -11 -22 -26 -28 -33 -5 -7 -23 -29 -40 -49 -16 -19 -43
-53 -60 -74 -16 -21 -35 -43 -40 -49 -74 -78 -358 -463 -397 -538 -11 -21 -24
-40 -28 -43 -5 -3 -11 -19 -15 -35 -4 -17 -10 -30 -13 -30 -14 0 -46 -134 -45
-189 0 -57 25 -126 60 -166 31 -35 112 -83 195 -115 44 -16 86 -30 92 -29 6 1
18 0 26 -4 15 -6 119 -30 175 -41 81 -16 168 -32 225 -40 19 -3 52 -8 74 -11
21 -4 57 -8 80 -10 22 -2 79 -7 126 -11 165 -14 549 -8 690 10 19 3 62 7 95
11 32 4 62 8 65 10 3 1 28 5 55 9 28 3 72 10 100 15 27 5 53 7 57 5 5 -3 8 0
8 5 0 6 3 10 8 9 4 -1 27 2 52 6 25 4 50 8 55 8 6 0 16 4 23 10 6 6 12 8 12 4
0 -3 10 -2 23 3 13 5 39 12 58 15 19 3 53 12 77 20 23 8 46 15 50 16 4 0 23 5
42 11 49 15 54 16 62 18 4 1 45 15 90 32 46 17 88 32 93 33 91 23 490 218 645
316 8 5 36 22 62 37 27 16 48 31 48 36 0 4 7 7 15 7 8 0 15 5 15 10 0 6 4 10
10 10 11 0 102 63 134 92 11 10 23 18 27 18 4 0 14 6 21 13 7 6 36 30 63 52
28 21 52 42 55 46 3 3 13 10 22 15 56 30 401 370 498 489 30 37 60 73 65 79
11 12 109 144 158 211 54 75 138 210 193 310 30 55 59 107 64 115 24 40 150
305 150 316 0 3 9 24 19 47 10 23 33 83 50 132 17 50 34 97 37 105 3 8 5 15 4
15 -1 0 6 16 14 35 8 19 15 38 15 43 1 4 1 8 2 10 0 1 2 9 4 17 2 8 18 67 35
130 17 63 33 126 35 140 9 47 14 72 19 88 3 9 8 33 10 52 3 19 9 51 12 70 4
19 8 50 8 67 1 18 3 33 6 33 3 0 6 8 6 18 1 15 4 46 20 192 13 120 18 483 9
610 -11 155 -37 363 -60 480 -18 92 -30 146 -51 230 -14 52 -27 105 -30 118
-11 55 -125 386 -153 447 -5 11 -24 52 -41 90 -49 109 -148 302 -192 374 -22
36 -49 80 -59 98 -55 97 -271 392 -336 460 -13 13 -23 28 -23 32 0 17 -449
461 -466 461 -2 0 -17 11 -32 24 -33 30 -170 133 -218 164 -19 12 -211 107
-249 123 -11 4 -40 13 -65 20 -25 6 -52 14 -60 17 -21 7 -30 9 -70 16 -19 4
-48 9 -63 12 -16 3 -69 7 -117 9 -49 2 -93 6 -98 9 -5 3 -11 3 -14 1z"/>
</g>
</svg>
